<?xml version="1.0" standalone="no"?>
<!DOCTYPE svg PUBLIC "-//W3C//DTD SVG 20010904//EN"
 "http://www.w3.org/TR/2001/REC-SVG-20010904/DTD/svg10.dtd">
<svg version="1.0" xmlns="http://www.w3.org/2000/svg"
 width="263.000000pt" height="189.000000pt" viewBox="0 0 263.000000 189.000000"
 preserveAspectRatio="xMidYMid meet">

<g transform="translate(0.000000,189.000000) scale(0.100000,-0.100000)"
fill="#000000" stroke="none">
<path d="M805 1403 c-52 -69 -95 -135 -95 -145 0 -32 29 -77 60 -93 78 -40
158 -3 185 87 8 27 33 99 55 160 22 60 40 111 40 114 0 2 -34 4 -75 4 l-75 0
-95 -127z"/>
<path d="M1081 1488 c-10 -24 -33 -85 -51 -135 -37 -105 -34 -131 22 -178 33
-28 97 -33 136 -11 53 29 62 59 62 219 l0 147 -75 0 -76 0 -18 -42z"/>
<path d="M1300 1383 c0 -160 9 -190 62 -219 39 -22 103 -17 136 11 60 50 61
70 6 220 l-49 135 -77 0 -78 0 0 -147z"/>
<path d="M1500 1526 c0 -3 18 -54 40 -114 22 -61 47 -133 55 -160 27 -90 107
-127 185 -87 31 16 60 61 60 93 0 10 -43 76 -95 145 l-95 127 -75 0 c-41 0
-75 -2 -75 -4z"/>
<path d="M1065 1100 c-11 -5 -37 -11 -58 -15 -61 -10 -97 -50 -105 -115 l-7
-55 -65 -5 c-36 -3 -71 -9 -77 -13 -10 -6 -13 -52 -13 -172 0 -90 3 -170 6
-179 5 -14 43 -16 319 -16 276 0 314 2 319 16 3 9 6 89 6 179 0 190 3 185 -99
185 l-61 0 0 59 c0 44 -5 65 -21 85 -38 48 -96 67 -144 46z m106 -59 c24 -25
29 -37 29 -80 0 -47 -2 -51 -24 -51 -21 0 -25 6 -31 50 -4 27 -15 61 -26 74
-24 31 -24 36 2 36 11 0 34 -13 50 -29z m-181 -63 c-5 -61 -6 -63 -34 -66 -29
-4 -29 -3 -24 43 5 45 30 85 52 85 7 0 9 -21 6 -62z m99 36 c13 -17 21 -41 21
-65 l0 -39 -45 0 -45 0 0 46 c0 81 31 107 69 58z m-51 -241 l3 -83 -126 0
-125 0 0 85 0 86 123 -3 122 -3 3 -82z m297 2 l0 -80 -127 -3 -128 -3 0 79 c0
43 3 82 7 86 4 3 61 5 127 4 l121 -3 0 -80z"/>
<path d="M1471 1086 c-8 -9 -11 -92 -9 -282 l3 -269 164 -3 c125 -2 166 1 173
10 4 7 8 129 8 270 0 220 -2 259 -16 272 -21 22 -305 24 -323 2z m287 -286 c3
-33 -12 -55 -32 -47 -16 6 -23 57 -9 71 14 14 38 0 41 -24z"/>
<path d="M855 355 c-23 -22 -25 -32 -25 -113 0 -75 3 -93 21 -116 27 -34 77
-36 107 -3 19 20 22 35 22 116 0 84 -2 94 -25 116 -13 14 -36 25 -50 25 -14 0
-37 -11 -50 -25z m74 -29 c8 -9 11 -43 9 -92 -2 -61 -7 -79 -21 -88 -30 -18
-47 17 -47 95 0 48 5 72 16 83 19 20 28 20 43 2z"/>
<path d="M1346 359 c-25 -20 -26 -24 -26 -120 0 -114 13 -139 73 -139 38 0 62
21 72 63 6 22 4 27 -12 27 -12 0 -25 -11 -31 -26 -9 -18 -19 -24 -35 -22 -21
3 -22 9 -25 89 -2 64 1 89 11 98 20 16 44 4 51 -25 6 -24 30 -33 40 -15 11 17
-15 68 -40 80 -35 16 -47 14 -78 -10z"/>
<path d="M1594 368 c-61 -29 -50 -107 21 -150 46 -28 54 -45 33 -66 -19 -19
-37 -14 -50 13 -6 14 -20 25 -31 25 -16 0 -18 -5 -12 -27 10 -42 34 -63 72
-63 47 0 75 31 71 78 -3 32 -10 41 -50 67 -37 23 -48 36 -48 56 0 30 25 45 46
28 8 -6 14 -22 14 -35 0 -17 6 -24 20 -24 32 0 28 63 -6 89 -29 23 -48 25 -80
9z"/>
<path d="M1915 355 c-23 -22 -25 -32 -25 -113 0 -75 3 -93 21 -116 27 -34 77
-36 107 -3 19 20 22 35 22 116 0 84 -2 94 -25 116 -13 14 -36 25 -50 25 -14 0
-37 -11 -50 -25z m81 -49 c3 -12 4 -50 2 -85 -3 -71 -22 -97 -52 -72 -22 19
-23 153 -1 175 19 19 43 11 51 -18z"/>
<path d="M150 235 c0 -128 1 -135 20 -135 18 0 20 7 20 61 l0 60 33 -3 c32 -3
32 -4 35 -60 3 -50 6 -58 22 -58 19 0 20 8 20 135 0 127 -1 135 -19 135 -17 0
-20 -8 -23 -52 -3 -51 -4 -53 -33 -53 -29 0 -30 2 -33 53 -3 44 -6 52 -23 52
-18 0 -19 -8 -19 -135z"/>
<path d="M356 281 c-31 -172 -32 -181 -7 -181 12 0 21 6 21 15 0 20 56 20 64
0 4 -12 47 -23 46 -12 0 1 -11 60 -23 132 l-23 130 -31 3 -30 3 -17 -90z m63
-83 c1 -22 -4 -28 -19 -28 -19 0 -20 4 -15 38 4 20 9 46 13 57 5 17 7 16 13
-10 4 -16 7 -42 8 -57z"/>
<path d="M480 367 c0 -2 11 -37 25 -77 15 -45 25 -96 25 -132 0 -51 2 -58 20
-58 17 0 20 7 20 53 0 31 11 85 25 127 30 89 30 90 5 90 -15 0 -22 -11 -31
-45 -6 -25 -14 -45 -18 -45 -4 0 -12 20 -19 45 -9 34 -17 45 -32 45 -11 0 -20
-1 -20 -3z"/>
<path d="M652 238 l3 -133 46 -3 c38 -2 52 2 75 22 28 23 29 28 29 114 0 116
-12 132 -97 132 l-59 0 3 -132z m106 5 c3 -74 1 -83 -18 -93 -11 -6 -25 -8
-30 -5 -6 3 -10 47 -10 96 l0 90 28 -3 c27 -3 27 -4 30 -85z"/>
<path d="M1020 235 c0 -128 1 -135 20 -135 19 0 20 7 20 100 0 55 3 100 6 100
3 0 14 -10 24 -22 l19 -23 18 25 c18 25 18 24 23 -75 4 -85 8 -100 23 -103 15
-3 17 8 17 132 l0 136 -24 0 c-13 0 -30 -10 -39 -22 l-15 -23 -24 23 c-13 12
-34 22 -46 22 -22 0 -22 -3 -22 -135z"/>
<path d="M1240 235 c0 -128 1 -135 20 -135 19 0 20 7 20 135 0 128 -1 135 -20
135 -19 0 -20 -7 -20 -135z"/>
<path d="M1720 351 c0 -14 8 -21 28 -23 l27 -3 3 -113 c2 -101 5 -113 20 -110
15 3 17 19 20 116 3 112 3 112 27 112 18 0 25 5 25 20 0 18 -7 20 -75 20 -67
0 -75 -2 -75 -19z"/>
<path d="M2080 235 c0 -128 1 -135 20 -135 18 0 20 7 20 60 0 56 2 60 23 60
35 0 47 -19 47 -72 0 -41 3 -48 20 -48 18 0 20 7 20 59 0 33 -4 62 -9 66 -6 3
-4 19 5 40 27 66 -8 105 -95 105 l-51 0 0 -135z m107 79 c9 -24 -10 -49 -38
-49 -20 0 -25 6 -27 33 -3 30 -1 32 28 32 19 0 33 -6 37 -16z"/>
<path d="M2270 235 l0 -135 65 0 c58 0 65 2 65 20 0 17 -7 20 -40 20 l-40 0 0
40 0 40 40 0 c33 0 40 3 40 20 0 17 -7 20 -40 20 -39 0 -40 1 -40 35 0 34 1
35 40 35 33 0 40 3 40 20 0 18 -7 20 -65 20 l-65 0 0 -135z"/>
</g>
</svg>
